<svg width="17" height="16" viewBox="0 0 17 16" fill="none" xmlns="http://www.w3.org/2000/svg">
<path d="M15.0475 8.6175C14.8315 8.45203 14.5803 8.33846 14.3134 8.28557C14.0464 8.23268 13.7709 8.2419 13.5081 8.3125L11.25 8.82875C11.25 8.8025 11.25 8.77625 11.25 8.75C11.25 8.21957 11.0393 7.71086 10.6642 7.33579C10.2891 6.96071 9.78043 6.75 9.25 6.75H6.12125C5.82573 6.74919 5.53299 6.807 5.25996 6.92007C4.98693 7.03315 4.73904 7.19924 4.53062 7.40875L3.1875 8.75H1.75C1.41848 8.75 1.10054 8.8817 0.866117 9.11612C0.631696 9.35054 0.5 9.66848 0.5 10L0.5 12.5C0.5 12.8315 0.631696 13.1495 0.866117 13.3839C1.10054 13.6183 1.41848 13.75 1.75 13.75H8C8.06132 13.75 8.12241 13.7425 8.18188 13.7275L12.1819 12.7275C12.2201 12.7181 12.2576 12.7056 12.2937 12.69L14.72 11.6563C14.7344 11.6506 14.7481 11.6444 14.7619 11.6375C15.0332 11.5018 15.2656 11.2992 15.437 11.0489C15.6085 10.7986 15.7135 10.5088 15.742 10.2067C15.7706 9.90464 15.7218 9.60028 15.6003 9.32226C15.4788 9.04424 15.2886 8.80171 15.0475 8.6175ZM2 10.25H2.75V12.25H2V10.25ZM14.105 10.2881L11.7606 11.2881L7.9075 12.25H4.25V9.8125L5.59125 8.47125C5.66058 8.40117 5.74312 8.34553 5.83409 8.30755C5.92507 8.26957 6.02267 8.25001 6.12125 8.25H9.25C9.38261 8.25 9.50979 8.30268 9.60355 8.39645C9.69732 8.49021 9.75 8.61739 9.75 8.75C9.75 8.88261 9.69732 9.00979 9.60355 9.10355C9.50979 9.19732 9.38261 9.25 9.25 9.25H7.5C7.30109 9.25 7.11032 9.32902 6.96967 9.46967C6.82902 9.61032 6.75 9.80109 6.75 10C6.75 10.1989 6.82902 10.3897 6.96967 10.5303C7.11032 10.671 7.30109 10.75 7.5 10.75H9.5C9.55656 10.75 9.61295 10.7437 9.66813 10.7313L13.8556 9.76813L13.885 9.76063C13.9277 9.74901 13.9725 9.74739 14.0159 9.75588C14.0593 9.76437 14.1002 9.78274 14.1354 9.80957C14.1706 9.83641 14.1991 9.87098 14.2187 9.91062C14.2384 9.95025 14.2487 9.99388 14.2487 10.0381C14.2491 10.0888 14.2359 10.1386 14.2107 10.1826C14.1854 10.2265 14.1489 10.2629 14.105 10.2881ZM10.75 6.25C10.8188 6.25 10.8875 6.24625 10.955 6.24063C11.1338 6.65487 11.4213 7.01301 11.7871 7.27707C12.153 7.54114 12.5834 7.70128 13.0329 7.74053C13.4824 7.77977 13.9341 7.69665 14.3401 7.49998C14.7462 7.30331 15.0914 7.00042 15.3393 6.62343C15.5872 6.24644 15.7284 5.8094 15.748 5.35865C15.7676 4.90791 15.6649 4.46025 15.4507 4.06316C15.2365 3.66607 14.9188 3.33434 14.5314 3.10316C14.144 2.87197 13.7012 2.74994 13.25 2.75C13.1812 2.75 13.1138 2.75375 13.0463 2.75875C12.8674 2.34464 12.5798 1.98664 12.214 1.72269C11.8483 1.45874 11.4179 1.29868 10.9685 1.25946C10.5191 1.22025 10.0675 1.30335 9.66152 1.49996C9.25554 1.69656 8.91032 1.99935 8.66245 2.37622C8.41458 2.75309 8.27329 3.19001 8.25356 3.64066C8.23383 4.0913 8.33639 4.53889 8.55038 4.93599C8.76437 5.33308 9.08181 5.66487 9.46906 5.89621C9.8563 6.12754 10.2989 6.24979 10.75 6.25ZM14.25 5.25C14.25 5.44778 14.1914 5.64112 14.0815 5.80557C13.9716 5.97002 13.8154 6.09819 13.6327 6.17388C13.45 6.24957 13.2489 6.26937 13.0549 6.23079C12.8609 6.1922 12.6827 6.09696 12.5429 5.95711C12.403 5.81725 12.3078 5.63907 12.2692 5.44509C12.2306 5.25111 12.2504 5.05004 12.3261 4.86732C12.4018 4.68459 12.53 4.52841 12.6944 4.41853C12.8589 4.30865 13.0522 4.25 13.25 4.25C13.5152 4.25 13.7696 4.35536 13.9571 4.54289C14.1446 4.73043 14.25 4.98478 14.25 5.25ZM10.75 2.75C10.9402 2.74986 11.1264 2.80393 11.2869 2.90588C11.4474 3.00784 11.5756 3.15344 11.6562 3.32563C11.217 3.68898 10.9151 4.19154 10.8006 4.75C10.7837 4.75 10.7669 4.75 10.75 4.75C10.4848 4.75 10.2304 4.64464 10.0429 4.45711C9.85536 4.26957 9.75 4.01522 9.75 3.75C9.75 3.48478 9.85536 3.23043 10.0429 3.04289C10.2304 2.85536 10.4848 2.75 10.75 2.75Z" fill="#FDFDFD"/>
</svg>
