<svg width="49" height="48" viewBox="0 0 49 48" fill="none" xmlns="http://www.w3.org/2000/svg">
<g clip-path="url(#clip0_1702_13247)">
<path d="M8.14406 35.682C8.45971 35.9946 8.70159 36.372 8.85245 36.7874C9.00331 37.2027 9.05945 37.6458 9.01685 38.085C8.80312 40.1177 8.39792 42.1264 7.80649 44.085C12.0488 43.116 14.6398 41.994 15.8167 41.406C16.4843 41.0725 17.253 40.9934 17.9759 41.184C20.0482 41.729 22.1841 42.0033 24.3288 42C36.481 42 45.6164 33.579 45.6164 24C45.6164 14.424 36.481 6 24.3288 6C12.1765 6 3.0411 14.424 3.0411 24C3.0411 28.404 4.91745 32.49 8.14406 35.682ZM6.64479 47.397C5.92426 47.5379 5.2014 47.6669 4.47649 47.784C3.86827 47.88 3.40603 47.256 3.64627 46.698C3.9163 46.0698 4.16379 45.4324 4.3883 44.787L4.39742 44.757C5.15162 42.597 5.76592 40.113 5.99096 37.8C2.25953 34.11 0 29.28 0 24C0 12.402 10.8932 3 24.3288 3C37.7643 3 48.6575 12.402 48.6575 24C48.6575 35.598 37.7643 45 24.3288 45C21.9192 45.0032 19.5195 44.6946 17.1913 44.082C15.6099 44.871 12.207 46.308 6.64479 47.397Z" fill="#FDFDFD"/>
<path d="M21.4884 20.2799C20.896 19.3699 20.0202 18.6741 18.9926 18.2971C17.965 17.9202 16.8411 17.8824 15.7899 18.1895C14.7387 18.4966 13.8169 19.132 13.1631 20.0002C12.5094 20.8684 12.1589 21.9224 12.1644 23.0039C12.1649 23.8995 12.4093 24.7786 12.8719 25.5492C13.3345 26.3198 13.9984 26.9537 14.7942 27.3847C15.59 27.8157 16.4886 28.028 17.396 27.9994C18.3034 27.9707 19.1863 27.7023 19.9526 27.2219C19.5542 28.3889 18.8122 29.6339 17.5897 30.8819C17.3558 31.1206 17.2276 31.4412 17.2333 31.7732C17.2361 31.9375 17.2717 32.0997 17.3381 32.2505C17.4045 32.4013 17.5003 32.5377 17.6201 32.6519C17.7399 32.7662 17.8814 32.856 18.0364 32.9164C18.1914 32.9767 18.3569 33.0063 18.5235 33.0035C18.86 32.9979 19.1804 32.8606 19.4143 32.6219C23.9334 28.0019 23.3465 22.9799 21.4884 20.2859V20.2799ZM33.6528 20.2799C33.0604 19.3699 32.1846 18.6741 31.157 18.2971C30.1294 17.9202 29.0055 17.8824 27.9543 18.1895C26.9031 18.4966 25.9813 19.132 25.3275 20.0002C24.6737 20.8684 24.3233 21.9224 24.3288 23.0039C24.3293 23.8995 24.5736 24.7786 25.0362 25.5492C25.4988 26.3198 26.1627 26.9537 26.9586 27.3847C27.7544 27.8157 28.6529 28.028 29.5604 27.9994C30.4678 27.9707 31.3507 27.7023 32.117 27.2219C31.7186 28.3889 30.9766 29.6339 29.7541 30.8819C29.6383 31.0001 29.5472 31.1397 29.486 31.2926C29.4249 31.4455 29.3948 31.6088 29.3977 31.7732C29.4005 31.9375 29.4361 32.0997 29.5025 32.2505C29.5688 32.4013 29.6647 32.5377 29.7845 32.6519C29.9043 32.7662 30.0457 32.856 30.2007 32.9164C30.3558 32.9767 30.5213 33.0063 30.6879 33.0035C30.8545 33.0007 31.0189 32.9656 31.1718 32.9001C31.3246 32.8347 31.4629 32.7401 31.5787 32.6219C36.0978 28.0019 35.5109 22.9799 33.6528 20.2859V20.2799Z" fill="#FDFDFD"/>
</g>
<defs>
<clipPath id="clip0_1702_13247">
<rect width="48.6575" height="48" fill="white"/>
</clipPath>
</defs>
</svg>
