<svg width="153" height="142" viewBox="0 0 153 142" fill="none" xmlns="http://www.w3.org/2000/svg">
<path d="M17.5972 60.3795V110.101H5.89352V60.3795H17.5972ZM43.5401 60.3795C45.4783 60.3795 47.2674 60.454 48.7583 60.6031C50.2492 60.7522 51.6656 60.9013 52.8583 61.125C54.051 61.4231 55.0947 61.7213 56.0638 62.1686C57.0329 62.6159 58.002 63.2122 58.8965 63.8086C60.6856 65.1504 62.102 66.9395 63.1456 69.1013C64.1147 71.2631 64.6365 73.7231 64.6365 76.4068C64.6365 82.2959 62.4001 86.8431 57.9274 89.974C55.9892 91.3904 53.8274 92.434 51.5165 93.0304C49.131 93.6268 46.3729 93.925 43.0929 93.925H39.291V110.101H27.5874V60.3795H43.5401ZM39.291 84.7559H42.1983C44.211 84.7559 45.702 84.6813 46.671 84.4577C47.6401 84.3086 48.6092 83.8613 49.5038 83.265C50.3983 82.6686 51.0692 81.8486 51.591 80.7304C52.1129 79.6868 52.411 78.494 52.411 77.1522C52.411 75.885 52.1129 74.6922 51.591 73.574C51.0692 72.5304 50.3983 71.6359 49.5038 71.0395C48.6092 70.4431 47.6401 70.0704 46.671 69.8468C45.702 69.6977 44.211 69.5486 42.1983 69.5486H39.291V84.7559ZM109.021 110.101H96.4231L94.7086 102.274H79.9486L78.085 110.101H66.0831L80.6195 60.1559H94.9322L109.021 110.101ZM87.6268 71.4122L82.2595 93.3286H92.6213L87.6268 71.4122ZM125.075 95.1177C125.373 99.665 127.386 101.901 131.113 101.901C132.678 101.901 134.02 101.454 135.064 100.559C136.108 99.665 136.629 98.4722 136.629 96.9813C136.629 96.0868 136.406 95.3413 135.958 94.6704C135.511 93.9995 134.915 93.3286 134.095 92.7322C133.573 92.434 133.126 92.1359 132.828 91.9122C132.455 91.6886 131.933 91.3904 131.337 91.0922C130.74 90.794 129.846 90.3468 128.802 89.825C127.758 89.3031 126.268 88.5577 124.329 87.5886C122.54 86.694 120.975 85.7995 119.782 84.905C118.515 84.0104 117.546 83.0413 116.8 81.9977C116.055 80.954 115.458 79.8359 115.16 78.5686C114.862 77.3759 114.713 75.9595 114.713 74.3195C114.713 69.6977 116.278 66.1195 119.409 63.4359C122.54 60.7522 126.864 59.4104 132.38 59.4104C135.064 59.4104 137.524 59.7831 139.611 60.5286C141.698 61.274 143.338 62.3177 144.68 63.734C145.426 64.554 146.022 65.4486 146.544 66.4922C146.991 67.5359 147.438 68.8031 147.886 70.3686L137.002 74.1704C136.704 72.2322 136.033 70.8159 135.138 69.9213C134.244 69.0268 132.902 68.5795 131.188 68.5795C129.771 68.5795 128.653 69.0268 127.758 69.7722C126.864 70.5177 126.491 71.5613 126.491 72.8286C126.491 74.1704 126.938 75.2886 127.982 76.2577C128.951 77.3013 130.591 78.2704 132.902 79.2395C134.318 79.8359 135.511 80.3577 136.48 80.805C137.449 81.2522 138.269 81.625 138.94 81.9231C139.611 82.2959 140.208 82.594 140.729 82.8922C141.177 83.1904 141.773 83.5631 142.369 83.9359C146.544 86.7686 148.631 90.645 148.631 95.4159C148.631 97.6522 148.109 99.814 147.215 101.827C146.246 103.839 144.904 105.554 143.189 107.045C141.4 108.536 139.537 109.58 137.524 110.176C135.437 110.772 132.977 111.07 129.995 111.07C124.106 111.07 119.782 109.505 116.949 106.374C116.055 105.554 115.458 104.585 115.011 103.467C114.564 102.423 114.117 100.932 113.818 99.1431L125.075 95.1177Z" fill="#1D67FC"/>
<path d="M8.18076 120.412V128.101H7.41076V120.412H8.18076ZM12.7404 121.985C13.4591 121.985 14.0458 122.209 14.5004 122.656C14.9551 123.096 15.1824 123.738 15.1824 124.581V128.101H14.4234V124.669C14.4234 124.017 14.2584 123.518 13.9284 123.173C13.6058 122.829 13.1621 122.656 12.5974 122.656C12.0181 122.656 11.5561 122.84 11.2114 123.206C10.8668 123.573 10.6944 124.112 10.6944 124.823V128.101H9.92443V122.095H10.6944V123.118C10.8851 122.752 11.1601 122.473 11.5194 122.282C11.8788 122.084 12.2858 121.985 12.7404 121.985ZM18.9534 128.189C18.264 128.189 17.6994 128.032 17.2594 127.716C16.8267 127.394 16.5847 126.957 16.5334 126.407H17.3254C17.362 126.745 17.5197 127.02 17.7984 127.232C18.0844 127.438 18.4657 127.54 18.9424 127.54C19.3604 127.54 19.6867 127.441 19.9214 127.243C20.1634 127.045 20.2844 126.8 20.2844 126.506C20.2844 126.301 20.2184 126.132 20.0864 126C19.9544 125.868 19.7857 125.766 19.5804 125.692C19.3824 125.612 19.111 125.527 18.7664 125.439C18.319 125.322 17.956 125.205 17.6774 125.087C17.3987 124.97 17.1604 124.798 16.9624 124.57C16.7717 124.336 16.6764 124.024 16.6764 123.635C16.6764 123.342 16.7644 123.071 16.9404 122.821C17.1164 122.572 17.3657 122.374 17.6884 122.227C18.011 122.081 18.3777 122.007 18.7884 122.007C19.4337 122.007 19.9544 122.172 20.3504 122.502C20.7464 122.825 20.959 123.272 20.9884 123.844H20.2184C20.1964 123.492 20.057 123.21 19.8004 122.997C19.551 122.777 19.2064 122.667 18.7664 122.667C18.3777 122.667 18.0624 122.759 17.8204 122.942C17.5784 123.126 17.4574 123.353 17.4574 123.624C17.4574 123.859 17.527 124.053 17.6664 124.207C17.813 124.354 17.9927 124.471 18.2054 124.559C18.418 124.64 18.704 124.732 19.0634 124.834C19.496 124.952 19.8407 125.065 20.0974 125.175C20.354 125.285 20.574 125.447 20.7574 125.659C20.9407 125.872 21.036 126.154 21.0434 126.506C21.0434 126.829 20.9554 127.119 20.7794 127.375C20.6034 127.625 20.3577 127.823 20.0424 127.969C19.727 128.116 19.364 128.189 18.9534 128.189ZM23.4938 122.744V126.473C23.4938 126.84 23.5635 127.093 23.7028 127.232C23.8421 127.372 24.0878 127.441 24.4398 127.441H25.1438V128.101H24.3188C23.7761 128.101 23.3728 127.977 23.1088 127.727C22.8448 127.471 22.7128 127.053 22.7128 126.473V122.744H21.8768V122.095H22.7128V120.588H23.4938V122.095H25.1438V122.744H23.4938ZM26.7987 120.962C26.6447 120.962 26.5127 120.907 26.4027 120.797C26.2927 120.687 26.2377 120.552 26.2377 120.39C26.2377 120.229 26.2927 120.097 26.4027 119.994C26.5127 119.884 26.6447 119.829 26.7987 119.829C26.9527 119.829 27.0847 119.884 27.1947 119.994C27.3047 120.097 27.3597 120.229 27.3597 120.39C27.3597 120.552 27.3047 120.687 27.1947 120.797C27.0847 120.907 26.9527 120.962 26.7987 120.962ZM27.1837 122.095V128.101H26.4137V122.095H27.1837ZM29.9284 122.744V126.473C29.9284 126.84 29.998 127.093 30.1374 127.232C30.2767 127.372 30.5224 127.441 30.8744 127.441H31.5784V128.101H30.7534C30.2107 128.101 29.8074 127.977 29.5434 127.727C29.2794 127.471 29.1474 127.053 29.1474 126.473V122.744H28.3114V122.095H29.1474V120.588H29.9284V122.095H31.5784V122.744H29.9284ZM38.0513 122.095V128.101H37.2813V127.045C37.1053 127.419 36.8339 127.705 36.4673 127.903C36.1006 128.101 35.6899 128.2 35.2353 128.2C34.5166 128.2 33.9299 127.98 33.4753 127.54C33.0206 127.093 32.7933 126.448 32.7933 125.604V122.095H33.5523V125.516C33.5523 126.169 33.7136 126.668 34.0363 127.012C34.3663 127.357 34.8136 127.529 35.3783 127.529C35.9576 127.529 36.4196 127.346 36.7643 126.979C37.1089 126.613 37.2813 126.074 37.2813 125.362V122.095H38.0513ZM40.8102 122.744V126.473C40.8102 126.84 40.8799 127.093 41.0192 127.232C41.1585 127.372 41.4042 127.441 41.7562 127.441H42.4602V128.101H41.6352C41.0925 128.101 40.6892 127.977 40.4252 127.727C40.1612 127.471 40.0292 127.053 40.0292 126.473V122.744H39.1932V122.095H40.0292V120.588H40.8102V122.095H42.4602V122.744H40.8102ZM46.3591 128.189C45.7944 128.189 45.2848 128.065 44.8301 127.815C44.3828 127.559 44.0271 127.199 43.7631 126.737C43.5064 126.268 43.3781 125.722 43.3781 125.098C43.3781 124.475 43.5101 123.932 43.7741 123.47C44.0381 123.001 44.3974 122.642 44.8521 122.392C45.3068 122.136 45.8164 122.007 46.3811 122.007C46.9458 122.007 47.4554 122.136 47.9101 122.392C48.3721 122.642 48.7314 123.001 48.9881 123.47C49.2521 123.932 49.3841 124.475 49.3841 125.098C49.3841 125.714 49.2521 126.257 48.9881 126.726C48.7241 127.196 48.3611 127.559 47.8991 127.815C47.4371 128.065 46.9238 128.189 46.3591 128.189ZM46.3591 127.518C46.7551 127.518 47.1218 127.43 47.4591 127.254C47.7964 127.071 48.0678 126.8 48.2731 126.44C48.4858 126.074 48.5921 125.626 48.5921 125.098C48.5921 124.57 48.4894 124.127 48.2841 123.767C48.0788 123.401 47.8074 123.129 47.4701 122.953C47.1328 122.77 46.7661 122.678 46.3701 122.678C45.9741 122.678 45.6074 122.77 45.2701 122.953C44.9328 123.129 44.6614 123.401 44.4561 123.767C44.2581 124.127 44.1591 124.57 44.1591 125.098C44.1591 125.626 44.2581 126.074 44.4561 126.44C44.6614 126.8 44.9291 127.071 45.2591 127.254C45.5964 127.43 45.9631 127.518 46.3591 127.518ZM58.7233 122.623C58.7233 123.283 58.5069 123.815 58.0743 124.218C57.6416 124.622 56.9926 124.823 56.1273 124.823H54.5763V128.101H53.8063V120.412H56.1273C56.9853 120.412 57.6306 120.614 58.0633 121.017C58.5033 121.421 58.7233 121.956 58.7233 122.623ZM56.1273 124.163C57.3299 124.163 57.9313 123.65 57.9313 122.623C57.9313 122.11 57.7883 121.721 57.5023 121.457C57.2163 121.193 56.7579 121.061 56.1273 121.061H54.5763V124.163H56.1273ZM60.7853 123.162C60.9539 122.788 61.2106 122.499 61.5553 122.293C61.9073 122.088 62.3363 121.985 62.8423 121.985V122.788H62.6333C62.0759 122.788 61.6286 122.939 61.2913 123.239C60.9539 123.54 60.7853 124.042 60.7853 124.746V128.101H60.0153V122.095H60.7853V123.162ZM66.6296 128.189C66.0649 128.189 65.5553 128.065 65.1006 127.815C64.6533 127.559 64.2976 127.199 64.0336 126.737C63.7769 126.268 63.6486 125.722 63.6486 125.098C63.6486 124.475 63.7806 123.932 64.0446 123.47C64.3086 123.001 64.6679 122.642 65.1226 122.392C65.5773 122.136 66.0869 122.007 66.6516 122.007C67.2163 122.007 67.7259 122.136 68.1806 122.392C68.6426 122.642 69.0019 123.001 69.2586 123.47C69.5226 123.932 69.6546 124.475 69.6546 125.098C69.6546 125.714 69.5226 126.257 69.2586 126.726C68.9946 127.196 68.6316 127.559 68.1696 127.815C67.7076 128.065 67.1943 128.189 66.6296 128.189ZM66.6296 127.518C67.0256 127.518 67.3923 127.43 67.7296 127.254C68.0669 127.071 68.3383 126.8 68.5436 126.44C68.7563 126.074 68.8626 125.626 68.8626 125.098C68.8626 124.57 68.7599 124.127 68.5546 123.767C68.3493 123.401 68.0779 123.129 67.7406 122.953C67.4033 122.77 67.0366 122.678 66.6406 122.678C66.2446 122.678 65.8779 122.77 65.5406 122.953C65.2033 123.129 64.9319 123.401 64.7266 123.767C64.5286 124.127 64.4296 124.57 64.4296 125.098C64.4296 125.626 64.5286 126.074 64.7266 126.44C64.9319 126.8 65.1996 127.071 65.5296 127.254C65.8669 127.43 66.2336 127.518 66.6296 127.518ZM73.4232 122.744H72.0262V128.101H71.2562V122.744H70.4202V122.095H71.2562V121.677C71.2562 121.025 71.4212 120.544 71.7512 120.236C72.0886 119.928 72.6312 119.774 73.3792 119.774V120.434C72.8806 120.434 72.5286 120.53 72.3232 120.72C72.1252 120.911 72.0262 121.23 72.0262 121.677V122.095H73.4232V122.744ZM75.0204 120.962C74.8664 120.962 74.7344 120.907 74.6244 120.797C74.5144 120.687 74.4594 120.552 74.4594 120.39C74.4594 120.229 74.5144 120.097 74.6244 119.994C74.7344 119.884 74.8664 119.829 75.0204 119.829C75.1744 119.829 75.3064 119.884 75.4164 119.994C75.5264 120.097 75.5814 120.229 75.5814 120.39C75.5814 120.552 75.5264 120.687 75.4164 120.797C75.3064 120.907 75.1744 120.962 75.0204 120.962ZM75.4054 122.095V128.101H74.6354V122.095H75.4054ZM79.217 128.189C78.5277 128.189 77.963 128.032 77.523 127.716C77.0904 127.394 76.8484 126.957 76.797 126.407H77.589C77.6257 126.745 77.7834 127.02 78.062 127.232C78.348 127.438 78.7294 127.54 79.206 127.54C79.624 127.54 79.9504 127.441 80.185 127.243C80.427 127.045 80.548 126.8 80.548 126.506C80.548 126.301 80.482 126.132 80.35 126C80.218 125.868 80.0494 125.766 79.844 125.692C79.646 125.612 79.3747 125.527 79.03 125.439C78.5827 125.322 78.2197 125.205 77.941 125.087C77.6624 124.97 77.424 124.798 77.226 124.57C77.0354 124.336 76.94 124.024 76.94 123.635C76.94 123.342 77.028 123.071 77.204 122.821C77.38 122.572 77.6294 122.374 77.952 122.227C78.2747 122.081 78.6414 122.007 79.052 122.007C79.6974 122.007 80.218 122.172 80.614 122.502C81.01 122.825 81.2227 123.272 81.252 123.844H80.482C80.46 123.492 80.3207 123.21 80.064 122.997C79.8147 122.777 79.47 122.667 79.03 122.667C78.6414 122.667 78.326 122.759 78.084 122.942C77.842 123.126 77.721 123.353 77.721 123.624C77.721 123.859 77.7907 124.053 77.93 124.207C78.0767 124.354 78.2564 124.471 78.469 124.559C78.6817 124.64 78.9677 124.732 79.327 124.834C79.7597 124.952 80.1044 125.065 80.361 125.175C80.6177 125.285 80.8377 125.447 81.021 125.659C81.2044 125.872 81.2997 126.154 81.307 126.506C81.307 126.829 81.219 127.119 81.043 127.375C80.867 127.625 80.6214 127.823 80.306 127.969C79.9907 128.116 79.6277 128.189 79.217 128.189ZM84.8245 128.189C84.1351 128.189 83.5705 128.032 83.1305 127.716C82.6978 127.394 82.4558 126.957 82.4045 126.407H83.1965C83.2331 126.745 83.3908 127.02 83.6695 127.232C83.9555 127.438 84.3368 127.54 84.8135 127.54C85.2315 127.54 85.5578 127.441 85.7925 127.243C86.0345 127.045 86.1555 126.8 86.1555 126.506C86.1555 126.301 86.0895 126.132 85.9575 126C85.8255 125.868 85.6568 125.766 85.4515 125.692C85.2535 125.612 84.9821 125.527 84.6375 125.439C84.1901 125.322 83.8271 125.205 83.5485 125.087C83.2698 124.97 83.0315 124.798 82.8335 124.57C82.6428 124.336 82.5475 124.024 82.5475 123.635C82.5475 123.342 82.6355 123.071 82.8115 122.821C82.9875 122.572 83.2368 122.374 83.5595 122.227C83.8821 122.081 84.2488 122.007 84.6595 122.007C85.3048 122.007 85.8255 122.172 86.2215 122.502C86.6175 122.825 86.8301 123.272 86.8595 123.844H86.0895C86.0675 123.492 85.9281 123.21 85.6715 122.997C85.4221 122.777 85.0775 122.667 84.6375 122.667C84.2488 122.667 83.9335 122.759 83.6915 122.942C83.4495 123.126 83.3285 123.353 83.3285 123.624C83.3285 123.859 83.3981 124.053 83.5375 124.207C83.6841 124.354 83.8638 124.471 84.0765 124.559C84.2891 124.64 84.5751 124.732 84.9345 124.834C85.3671 124.952 85.7118 125.065 85.9685 125.175C86.2251 125.285 86.4451 125.447 86.6285 125.659C86.8118 125.872 86.9071 126.154 86.9145 126.506C86.9145 126.829 86.8265 127.119 86.6505 127.375C86.4745 127.625 86.2288 127.823 85.9135 127.969C85.5981 128.116 85.2351 128.189 84.8245 128.189ZM88.7489 120.962C88.5949 120.962 88.4629 120.907 88.3529 120.797C88.2429 120.687 88.1879 120.552 88.1879 120.39C88.1879 120.229 88.2429 120.097 88.3529 119.994C88.4629 119.884 88.5949 119.829 88.7489 119.829C88.9029 119.829 89.0349 119.884 89.1449 119.994C89.2549 120.097 89.3099 120.229 89.3099 120.39C89.3099 120.552 89.2549 120.687 89.1449 120.797C89.0349 120.907 88.9029 120.962 88.7489 120.962ZM89.1339 122.095V128.101H88.3639V122.095H89.1339ZM93.5066 128.189C92.9419 128.189 92.4322 128.065 91.9776 127.815C91.5302 127.559 91.1746 127.199 90.9106 126.737C90.6539 126.268 90.5256 125.722 90.5256 125.098C90.5256 124.475 90.6576 123.932 90.9216 123.47C91.1856 123.001 91.5449 122.642 91.9996 122.392C92.4542 122.136 92.9639 122.007 93.5286 122.007C94.0932 122.007 94.6029 122.136 95.0576 122.392C95.5196 122.642 95.8789 123.001 96.1356 123.47C96.3996 123.932 96.5316 124.475 96.5316 125.098C96.5316 125.714 96.3996 126.257 96.1356 126.726C95.8716 127.196 95.5086 127.559 95.0466 127.815C94.5846 128.065 94.0712 128.189 93.5066 128.189ZM93.5066 127.518C93.9026 127.518 94.2692 127.43 94.6066 127.254C94.9439 127.071 95.2152 126.8 95.4206 126.44C95.6332 126.074 95.7396 125.626 95.7396 125.098C95.7396 124.57 95.6369 124.127 95.4316 123.767C95.2262 123.401 94.9549 123.129 94.6176 122.953C94.2802 122.77 93.9136 122.678 93.5176 122.678C93.1216 122.678 92.7549 122.77 92.4176 122.953C92.0802 123.129 91.8089 123.401 91.6036 123.767C91.4056 124.127 91.3066 124.57 91.3066 125.098C91.3066 125.626 91.4056 126.074 91.6036 126.44C91.8089 126.8 92.0766 127.071 92.4066 127.254C92.7439 127.43 93.1106 127.518 93.5066 127.518ZM100.751 121.985C101.47 121.985 102.057 122.209 102.511 122.656C102.966 123.096 103.193 123.738 103.193 124.581V128.101H102.434V124.669C102.434 124.017 102.269 123.518 101.939 123.173C101.617 122.829 101.173 122.656 100.608 122.656C100.029 122.656 99.5668 122.84 99.2222 123.206C98.8775 123.573 98.7052 124.112 98.7052 124.823V128.101H97.9352V122.095H98.7052V123.118C98.8958 122.752 99.1708 122.473 99.5302 122.282C99.8895 122.084 100.297 121.985 100.751 121.985ZM104.544 125.087C104.544 124.471 104.665 123.932 104.907 123.47C105.156 123.001 105.497 122.642 105.93 122.392C106.37 122.136 106.865 122.007 107.415 122.007C107.987 122.007 108.478 122.139 108.889 122.403C109.307 122.667 109.608 123.005 109.791 123.415V122.095H110.561V128.101H109.791V126.77C109.6 127.181 109.296 127.522 108.878 127.793C108.467 128.057 107.976 128.189 107.404 128.189C106.861 128.189 106.37 128.061 105.93 127.804C105.497 127.548 105.156 127.185 104.907 126.715C104.665 126.246 104.544 125.703 104.544 125.087ZM109.791 125.098C109.791 124.614 109.692 124.189 109.494 123.822C109.296 123.456 109.025 123.173 108.68 122.975C108.343 122.777 107.969 122.678 107.558 122.678C107.133 122.678 106.751 122.774 106.414 122.964C106.077 123.155 105.809 123.434 105.611 123.8C105.42 124.16 105.325 124.589 105.325 125.087C105.325 125.579 105.42 126.011 105.611 126.385C105.809 126.752 106.077 127.034 106.414 127.232C106.751 127.423 107.133 127.518 107.558 127.518C107.969 127.518 108.343 127.419 108.68 127.221C109.025 127.023 109.296 126.741 109.494 126.374C109.692 126.008 109.791 125.582 109.791 125.098ZM113.089 119.961V128.101H112.319V119.961H113.089ZM115.218 120.962C115.064 120.962 114.932 120.907 114.822 120.797C114.712 120.687 114.657 120.552 114.657 120.39C114.657 120.229 114.712 120.097 114.822 119.994C114.932 119.884 115.064 119.829 115.218 119.829C115.372 119.829 115.504 119.884 115.614 119.994C115.724 120.097 115.779 120.229 115.779 120.39C115.779 120.552 115.724 120.687 115.614 120.797C115.504 120.907 115.372 120.962 115.218 120.962ZM115.603 122.095V128.101H114.833V122.095H115.603ZM117.753 127.463H120.899V128.101H116.873V127.463L119.964 122.733H116.928V122.095H120.844V122.733L117.753 127.463ZM121.85 125.087C121.85 124.471 121.971 123.932 122.213 123.47C122.462 123.001 122.803 122.642 123.236 122.392C123.676 122.136 124.171 122.007 124.721 122.007C125.293 122.007 125.784 122.139 126.195 122.403C126.613 122.667 126.913 123.005 127.097 123.415V122.095H127.867V128.101H127.097V126.77C126.906 127.181 126.602 127.522 126.184 127.793C125.773 128.057 125.282 128.189 124.71 128.189C124.167 128.189 123.676 128.061 123.236 127.804C122.803 127.548 122.462 127.185 122.213 126.715C121.971 126.246 121.85 125.703 121.85 125.087ZM127.097 125.098C127.097 124.614 126.998 124.189 126.8 123.822C126.602 123.456 126.33 123.173 125.986 122.975C125.648 122.777 125.274 122.678 124.864 122.678C124.438 122.678 124.057 122.774 123.72 122.964C123.382 123.155 123.115 123.434 122.917 123.8C122.726 124.16 122.631 124.589 122.631 125.087C122.631 125.579 122.726 126.011 122.917 126.385C123.115 126.752 123.382 127.034 123.72 127.232C124.057 127.423 124.438 127.518 124.864 127.518C125.274 127.518 125.648 127.419 125.986 127.221C126.33 127.023 126.602 126.741 126.8 126.374C126.998 126.008 127.097 125.582 127.097 125.098ZM132.441 121.985C133.159 121.985 133.746 122.209 134.201 122.656C134.655 123.096 134.883 123.738 134.883 124.581V128.101H134.124V124.669C134.124 124.017 133.959 123.518 133.629 123.173C133.306 122.829 132.862 122.656 132.298 122.656C131.718 122.656 131.256 122.84 130.912 123.206C130.567 123.573 130.395 124.112 130.395 124.823V128.101H129.625V122.095H130.395V123.118C130.585 122.752 130.86 122.473 131.22 122.282C131.579 122.084 131.986 121.985 132.441 121.985ZM137.587 122.744V126.473C137.587 126.84 137.656 127.093 137.796 127.232C137.935 127.372 138.181 127.441 138.533 127.441H139.237V128.101H138.412C137.869 128.101 137.466 127.977 137.202 127.727C136.938 127.471 136.806 127.053 136.806 126.473V122.744H135.97V122.095H136.806V120.588H137.587V122.095H139.237V122.744H137.587ZM145.94 124.79C145.94 125.054 145.933 125.256 145.918 125.395H140.935C140.957 125.85 141.067 126.239 141.265 126.561C141.463 126.884 141.724 127.13 142.046 127.298C142.369 127.46 142.721 127.54 143.102 127.54C143.601 127.54 144.019 127.419 144.356 127.177C144.701 126.935 144.928 126.609 145.038 126.198H145.852C145.706 126.785 145.39 127.265 144.906 127.639C144.43 128.006 143.828 128.189 143.102 128.189C142.538 128.189 142.032 128.065 141.584 127.815C141.137 127.559 140.785 127.199 140.528 126.737C140.279 126.268 140.154 125.722 140.154 125.098C140.154 124.475 140.279 123.929 140.528 123.459C140.778 122.99 141.126 122.631 141.573 122.381C142.021 122.132 142.53 122.007 143.102 122.007C143.674 122.007 144.173 122.132 144.598 122.381C145.031 122.631 145.361 122.968 145.588 123.393C145.823 123.811 145.94 124.277 145.94 124.79ZM145.159 124.768C145.167 124.321 145.075 123.94 144.884 123.624C144.701 123.309 144.448 123.071 144.125 122.909C143.803 122.748 143.451 122.667 143.069 122.667C142.497 122.667 142.01 122.851 141.606 123.217C141.203 123.584 140.979 124.101 140.935 124.768H145.159ZM20.9981 135.79C20.9981 136.054 20.9907 136.256 20.9761 136.395H15.9931C16.0151 136.85 16.1251 137.239 16.3231 137.561C16.5211 137.884 16.7814 138.13 17.1041 138.298C17.4267 138.46 17.7787 138.54 18.1601 138.54C18.6587 138.54 19.0767 138.419 19.4141 138.177C19.7587 137.935 19.9861 137.609 20.0961 137.198H20.9101C20.7634 137.785 20.4481 138.265 19.9641 138.639C19.4874 139.006 18.8861 139.189 18.1601 139.189C17.5954 139.189 17.0894 139.065 16.6421 138.815C16.1947 138.559 15.8427 138.199 15.5861 137.737C15.3367 137.268 15.2121 136.722 15.2121 136.098C15.2121 135.475 15.3367 134.929 15.5861 134.459C15.8354 133.99 16.1837 133.631 16.6311 133.381C17.0784 133.132 17.5881 133.007 18.1601 133.007C18.7321 133.007 19.2307 133.132 19.6561 133.381C20.0887 133.631 20.4187 133.968 20.6461 134.393C20.8807 134.811 20.9981 135.277 20.9981 135.79ZM20.2171 135.768C20.2244 135.321 20.1327 134.94 19.9421 134.624C19.7587 134.309 19.5057 134.071 19.1831 133.909C18.8604 133.748 18.5084 133.667 18.1271 133.667C17.5551 133.667 17.0674 133.851 16.6641 134.217C16.2607 134.584 16.0371 135.101 15.9931 135.768H20.2171ZM25.0734 136.087C25.0734 135.471 25.1981 134.932 25.4474 134.47C25.6967 134.001 26.0377 133.642 26.4704 133.392C26.9104 133.136 27.4054 133.007 27.9554 133.007C28.4834 133.007 28.9601 133.136 29.3854 133.392C29.8107 133.649 30.1224 133.983 30.3204 134.393V130.961H31.0904V139.101H30.3204V137.759C30.1371 138.177 29.8364 138.522 29.4184 138.793C29.0004 139.057 28.5091 139.189 27.9444 139.189C27.3944 139.189 26.8994 139.061 26.4594 138.804C26.0267 138.548 25.6857 138.185 25.4364 137.715C25.1944 137.246 25.0734 136.703 25.0734 136.087ZM30.3204 136.098C30.3204 135.614 30.2214 135.189 30.0234 134.822C29.8254 134.456 29.5541 134.173 29.2094 133.975C28.8721 133.777 28.4981 133.678 28.0874 133.678C27.6621 133.678 27.2807 133.774 26.9434 133.964C26.6061 134.155 26.3384 134.434 26.1404 134.8C25.9497 135.16 25.8544 135.589 25.8544 136.087C25.8544 136.579 25.9497 137.011 26.1404 137.385C26.3384 137.752 26.6061 138.034 26.9434 138.232C27.2807 138.423 27.6621 138.518 28.0874 138.518C28.4981 138.518 28.8721 138.419 29.2094 138.221C29.5541 138.023 29.8254 137.741 30.0234 137.374C30.2214 137.008 30.3204 136.582 30.3204 136.098ZM38.2823 135.79C38.2823 136.054 38.2749 136.256 38.2603 136.395H33.2773C33.2993 136.85 33.4093 137.239 33.6073 137.561C33.8053 137.884 34.0656 138.13 34.3883 138.298C34.7109 138.46 35.0629 138.54 35.4443 138.54C35.9429 138.54 36.3609 138.419 36.6983 138.177C37.0429 137.935 37.2703 137.609 37.3803 137.198H38.1943C38.0476 137.785 37.7323 138.265 37.2483 138.639C36.7716 139.006 36.1703 139.189 35.4443 139.189C34.8796 139.189 34.3736 139.065 33.9263 138.815C33.4789 138.559 33.1269 138.199 32.8703 137.737C32.6209 137.268 32.4963 136.722 32.4963 136.098C32.4963 135.475 32.6209 134.929 32.8703 134.459C33.1196 133.99 33.4679 133.631 33.9153 133.381C34.3626 133.132 34.8723 133.007 35.4443 133.007C36.0163 133.007 36.5149 133.132 36.9403 133.381C37.3729 133.631 37.7029 133.968 37.9303 134.393C38.1649 134.811 38.2823 135.277 38.2823 135.79ZM37.5013 135.768C37.5086 135.321 37.4169 134.94 37.2263 134.624C37.0429 134.309 36.7899 134.071 36.4673 133.909C36.1446 133.748 35.7926 133.667 35.4113 133.667C34.8393 133.667 34.3516 133.851 33.9483 134.217C33.5449 134.584 33.3213 135.101 33.2773 135.768H37.5013ZM47.1646 137.275H43.6666L42.9956 139.101H42.1816L44.9866 131.511H45.8556L48.6496 139.101H47.8356L47.1646 137.275ZM46.9336 136.637L45.4156 132.479L43.8976 136.637H46.9336ZM51.9534 139.189C51.264 139.189 50.6994 139.032 50.2594 138.716C49.8267 138.394 49.5847 137.957 49.5334 137.407H50.3254C50.362 137.745 50.5197 138.02 50.7984 138.232C51.0844 138.438 51.4657 138.54 51.9424 138.54C52.3604 138.54 52.6867 138.441 52.9214 138.243C53.1634 138.045 53.2844 137.8 53.2844 137.506C53.2844 137.301 53.2184 137.132 53.0864 137C52.9544 136.868 52.7857 136.766 52.5804 136.692C52.3824 136.612 52.111 136.527 51.7664 136.439C51.319 136.322 50.956 136.205 50.6774 136.087C50.3987 135.97 50.1604 135.798 49.9624 135.57C49.7717 135.336 49.6764 135.024 49.6764 134.635C49.6764 134.342 49.7644 134.071 49.9404 133.821C50.1164 133.572 50.3657 133.374 50.6884 133.227C51.011 133.081 51.3777 133.007 51.7884 133.007C52.4337 133.007 52.9544 133.172 53.3504 133.502C53.7464 133.825 53.959 134.272 53.9884 134.844H53.2184C53.1964 134.492 53.057 134.21 52.8004 133.997C52.551 133.777 52.2064 133.667 51.7664 133.667C51.3777 133.667 51.0624 133.759 50.8204 133.942C50.5784 134.126 50.4574 134.353 50.4574 134.624C50.4574 134.859 50.527 135.053 50.6664 135.207C50.813 135.354 50.9927 135.471 51.2054 135.559C51.418 135.64 51.704 135.732 52.0634 135.834C52.496 135.952 52.8407 136.065 53.0974 136.175C53.354 136.285 53.574 136.447 53.7574 136.659C53.9407 136.872 54.036 137.154 54.0434 137.506C54.0434 137.829 53.9554 138.119 53.7794 138.375C53.6034 138.625 53.3577 138.823 53.0424 138.969C52.727 139.116 52.364 139.189 51.9534 139.189ZM57.5608 139.189C56.8715 139.189 56.3068 139.032 55.8668 138.716C55.4341 138.394 55.1921 137.957 55.1408 137.407H55.9328C55.9695 137.745 56.1271 138.02 56.4058 138.232C56.6918 138.438 57.0731 138.54 57.5498 138.54C57.9678 138.54 58.2941 138.441 58.5288 138.243C58.7708 138.045 58.8918 137.8 58.8918 137.506C58.8918 137.301 58.8258 137.132 58.6938 137C58.5618 136.868 58.3931 136.766 58.1878 136.692C57.9898 136.612 57.7185 136.527 57.3738 136.439C56.9265 136.322 56.5635 136.205 56.2848 136.087C56.0061 135.97 55.7678 135.798 55.5698 135.57C55.3791 135.336 55.2838 135.024 55.2838 134.635C55.2838 134.342 55.3718 134.071 55.5478 133.821C55.7238 133.572 55.9731 133.374 56.2958 133.227C56.6185 133.081 56.9851 133.007 57.3958 133.007C58.0411 133.007 58.5618 133.172 58.9578 133.502C59.3538 133.825 59.5665 134.272 59.5958 134.844H58.8258C58.8038 134.492 58.6645 134.21 58.4078 133.997C58.1585 133.777 57.8138 133.667 57.3738 133.667C56.9851 133.667 56.6698 133.759 56.4278 133.942C56.1858 134.126 56.0648 134.353 56.0648 134.624C56.0648 134.859 56.1345 135.053 56.2738 135.207C56.4205 135.354 56.6001 135.471 56.8128 135.559C57.0255 135.64 57.3115 135.732 57.6708 135.834C58.1035 135.952 58.4481 136.065 58.7048 136.175C58.9615 136.285 59.1815 136.447 59.3648 136.659C59.5481 136.872 59.6435 137.154 59.6508 137.506C59.6508 137.829 59.5628 138.119 59.3868 138.375C59.2108 138.625 58.9651 138.823 58.6498 138.969C58.3345 139.116 57.9715 139.189 57.5608 139.189ZM61.4852 131.962C61.3312 131.962 61.1992 131.907 61.0892 131.797C60.9792 131.687 60.9242 131.552 60.9242 131.39C60.9242 131.229 60.9792 131.097 61.0892 130.994C61.1992 130.884 61.3312 130.829 61.4852 130.829C61.6392 130.829 61.7712 130.884 61.8812 130.994C61.9912 131.097 62.0462 131.229 62.0462 131.39C62.0462 131.552 61.9912 131.687 61.8812 131.797C61.7712 131.907 61.6392 131.962 61.4852 131.962ZM61.8702 133.095V139.101H61.1002V133.095H61.8702ZM65.6819 139.189C64.9926 139.189 64.4279 139.032 63.9879 138.716C63.5552 138.394 63.3132 137.957 63.2619 137.407H64.0539C64.0906 137.745 64.2482 138.02 64.5269 138.232C64.8129 138.438 65.1942 138.54 65.6709 138.54C66.0889 138.54 66.4152 138.441 66.6499 138.243C66.8919 138.045 67.0129 137.8 67.0129 137.506C67.0129 137.301 66.9469 137.132 66.8149 137C66.6829 136.868 66.5142 136.766 66.3089 136.692C66.1109 136.612 65.8396 136.527 65.4949 136.439C65.0476 136.322 64.6846 136.205 64.4059 136.087C64.1272 135.97 63.8889 135.798 63.6909 135.57C63.5002 135.336 63.4049 135.024 63.4049 134.635C63.4049 134.342 63.4929 134.071 63.6689 133.821C63.8449 133.572 64.0942 133.374 64.4169 133.227C64.7396 133.081 65.1062 133.007 65.5169 133.007C66.1622 133.007 66.6829 133.172 67.0789 133.502C67.4749 133.825 67.6876 134.272 67.7169 134.844H66.9469C66.9249 134.492 66.7856 134.21 66.5289 133.997C66.2796 133.777 65.9349 133.667 65.4949 133.667C65.1062 133.667 64.7909 133.759 64.5489 133.942C64.3069 134.126 64.1859 134.353 64.1859 134.624C64.1859 134.859 64.2556 135.053 64.3949 135.207C64.5416 135.354 64.7212 135.471 64.9339 135.559C65.1466 135.64 65.4326 135.732 65.7919 135.834C66.2246 135.952 66.5692 136.065 66.8259 136.175C67.0826 136.285 67.3026 136.447 67.4859 136.659C67.6692 136.872 67.7646 137.154 67.7719 137.506C67.7719 137.829 67.6839 138.119 67.5079 138.375C67.3319 138.625 67.0862 138.823 66.7709 138.969C66.4556 139.116 66.0926 139.189 65.6819 139.189ZM70.2223 133.744V137.473C70.2223 137.84 70.292 138.093 70.4313 138.232C70.5706 138.372 70.8163 138.441 71.1683 138.441H71.8723V139.101H71.0473C70.5046 139.101 70.1013 138.977 69.8373 138.727C69.5733 138.471 69.4413 138.053 69.4413 137.473V133.744H68.6053V133.095H69.4413V131.588H70.2223V133.095H71.8723V133.744H70.2223ZM78.5762 135.79C78.5762 136.054 78.5689 136.256 78.5542 136.395H73.5712C73.5932 136.85 73.7032 137.239 73.9012 137.561C74.0992 137.884 74.3595 138.13 74.6822 138.298C75.0049 138.46 75.3569 138.54 75.7382 138.54C76.2369 138.54 76.6549 138.419 76.9922 138.177C77.3369 137.935 77.5642 137.609 77.6742 137.198H78.4882C78.3415 137.785 78.0262 138.265 77.5422 138.639C77.0655 139.006 76.4642 139.189 75.7382 139.189C75.1735 139.189 74.6675 139.065 74.2202 138.815C73.7729 138.559 73.4209 138.199 73.1642 137.737C72.9149 137.268 72.7902 136.722 72.7902 136.098C72.7902 135.475 72.9149 134.929 73.1642 134.459C73.4135 133.99 73.7619 133.631 74.2092 133.381C74.6565 133.132 75.1662 133.007 75.7382 133.007C76.3102 133.007 76.8089 133.132 77.2342 133.381C77.6669 133.631 77.9969 133.968 78.2242 134.393C78.4589 134.811 78.5762 135.277 78.5762 135.79ZM77.7952 135.768C77.8025 135.321 77.7109 134.94 77.5202 134.624C77.3369 134.309 77.0839 134.071 76.7612 133.909C76.4385 133.748 76.0865 133.667 75.7052 133.667C75.1332 133.667 74.6455 133.851 74.2422 134.217C73.8389 134.584 73.6152 135.101 73.5712 135.768H77.7952ZM75.6832 131.533L74.2092 132.457V131.83L75.6832 130.928L77.1572 131.83V132.457L75.6832 131.533ZM82.801 132.985C83.5196 132.985 84.1063 133.209 84.561 133.656C85.0156 134.096 85.243 134.738 85.243 135.581V139.101H84.484V135.669C84.484 135.017 84.319 134.518 83.989 134.173C83.6663 133.829 83.2226 133.656 82.658 133.656C82.0786 133.656 81.6166 133.84 81.272 134.206C80.9273 134.573 80.755 135.112 80.755 135.823V139.101H79.985V133.095H80.755V134.118C80.9456 133.752 81.2206 133.473 81.58 133.282C81.9393 133.084 82.3463 132.985 82.801 132.985ZM86.5939 136.098C86.5939 135.475 86.7186 134.932 86.9679 134.47C87.2173 134.001 87.5619 133.642 88.0019 133.392C88.4419 133.136 88.9443 133.007 89.5089 133.007C90.2496 133.007 90.8583 133.191 91.3349 133.557C91.8189 133.924 92.1306 134.423 92.2699 135.053H91.4449C91.3423 134.621 91.1186 134.283 90.7739 134.041C90.4366 133.792 90.0149 133.667 89.5089 133.667C89.1056 133.667 88.7426 133.759 88.4199 133.942C88.0973 134.126 87.8406 134.401 87.6499 134.767C87.4666 135.127 87.3749 135.57 87.3749 136.098C87.3749 136.626 87.4666 137.074 87.6499 137.44C87.8406 137.807 88.0973 138.082 88.4199 138.265C88.7426 138.449 89.1056 138.54 89.5089 138.54C90.0149 138.54 90.4366 138.419 90.7739 138.177C91.1186 137.928 91.3423 137.583 91.4449 137.143H92.2699C92.1306 137.759 91.8189 138.254 91.3349 138.628C90.8509 139.002 90.2423 139.189 89.5089 139.189C88.9443 139.189 88.4419 139.065 88.0019 138.815C87.5619 138.559 87.2173 138.199 86.9679 137.737C86.7186 137.268 86.5939 136.722 86.5939 136.098ZM94.077 131.962C93.923 131.962 93.791 131.907 93.681 131.797C93.571 131.687 93.516 131.552 93.516 131.39C93.516 131.229 93.571 131.097 93.681 130.994C93.791 130.884 93.923 130.829 94.077 130.829C94.231 130.829 94.363 130.884 94.473 130.994C94.583 131.097 94.638 131.229 94.638 131.39C94.638 131.552 94.583 131.687 94.473 131.797C94.363 131.907 94.231 131.962 94.077 131.962ZM94.462 133.095V139.101H93.692V133.095H94.462ZM95.8537 136.087C95.8537 135.471 95.9747 134.932 96.2167 134.47C96.466 134.001 96.807 133.642 97.2397 133.392C97.6797 133.136 98.1747 133.007 98.7247 133.007C99.2967 133.007 99.788 133.139 100.199 133.403C100.617 133.667 100.917 134.005 101.101 134.415V133.095H101.871V139.101H101.101V137.77C100.91 138.181 100.606 138.522 100.188 138.793C99.777 139.057 99.2857 139.189 98.7137 139.189C98.171 139.189 97.6797 139.061 97.2397 138.804C96.807 138.548 96.466 138.185 96.2167 137.715C95.9747 137.246 95.8537 136.703 95.8537 136.087ZM101.101 136.098C101.101 135.614 101.002 135.189 100.804 134.822C100.606 134.456 100.334 134.173 99.9897 133.975C99.6524 133.777 99.2784 133.678 98.8677 133.678C98.4424 133.678 98.061 133.774 97.7237 133.964C97.3864 134.155 97.1187 134.434 96.9207 134.8C96.73 135.16 96.6347 135.589 96.6347 136.087C96.6347 136.579 96.73 137.011 96.9207 137.385C97.1187 137.752 97.3864 138.034 97.7237 138.232C98.061 138.423 98.4424 138.518 98.8677 138.518C99.2784 138.518 99.6524 138.419 99.9897 138.221C100.334 138.023 100.606 137.741 100.804 137.374C101.002 137.008 101.101 136.582 101.101 136.098ZM108.979 139.178C108.473 139.178 108.026 139.09 107.637 138.914C107.256 138.738 106.955 138.493 106.735 138.177C106.515 137.862 106.398 137.51 106.383 137.121H107.197C107.234 137.495 107.399 137.825 107.692 138.111C107.985 138.39 108.414 138.529 108.979 138.529C109.5 138.529 109.91 138.397 110.211 138.133C110.519 137.862 110.673 137.521 110.673 137.11C110.673 136.78 110.589 136.516 110.42 136.318C110.251 136.113 110.042 135.963 109.793 135.867C109.544 135.765 109.199 135.655 108.759 135.537C108.246 135.398 107.839 135.262 107.538 135.13C107.237 134.998 106.981 134.793 106.768 134.514C106.555 134.236 106.449 133.858 106.449 133.381C106.449 132.985 106.552 132.633 106.757 132.325C106.962 132.01 107.252 131.764 107.626 131.588C108 131.412 108.429 131.324 108.913 131.324C109.624 131.324 110.196 131.5 110.629 131.852C111.069 132.197 111.322 132.644 111.388 133.194H110.552C110.501 132.879 110.328 132.6 110.035 132.358C109.742 132.109 109.346 131.984 108.847 131.984C108.385 131.984 108 132.109 107.692 132.358C107.384 132.6 107.23 132.934 107.23 133.359C107.23 133.682 107.314 133.942 107.483 134.14C107.652 134.338 107.861 134.489 108.11 134.591C108.367 134.694 108.711 134.804 109.144 134.921C109.643 135.061 110.046 135.2 110.354 135.339C110.662 135.471 110.922 135.677 111.135 135.955C111.348 136.234 111.454 136.608 111.454 137.077C111.454 137.437 111.359 137.778 111.168 138.1C110.977 138.423 110.695 138.683 110.321 138.881C109.947 139.079 109.5 139.178 108.979 139.178ZM115.571 139.189C115.006 139.189 114.497 139.065 114.042 138.815C113.595 138.559 113.239 138.199 112.975 137.737C112.718 137.268 112.59 136.722 112.59 136.098C112.59 135.475 112.722 134.932 112.986 134.47C113.25 134.001 113.609 133.642 114.064 133.392C114.519 133.136 115.028 133.007 115.593 133.007C116.158 133.007 116.667 133.136 117.122 133.392C117.584 133.642 117.943 134.001 118.2 134.47C118.464 134.932 118.596 135.475 118.596 136.098C118.596 136.714 118.464 137.257 118.2 137.726C117.936 138.196 117.573 138.559 117.111 138.815C116.649 139.065 116.136 139.189 115.571 139.189ZM115.571 138.518C115.967 138.518 116.334 138.43 116.671 138.254C117.008 138.071 117.28 137.8 117.485 137.44C117.698 137.074 117.804 136.626 117.804 136.098C117.804 135.57 117.701 135.127 117.496 134.767C117.291 134.401 117.019 134.129 116.682 133.953C116.345 133.77 115.978 133.678 115.582 133.678C115.186 133.678 114.819 133.77 114.482 133.953C114.145 134.129 113.873 134.401 113.668 134.767C113.47 135.127 113.371 135.57 113.371 136.098C113.371 136.626 113.47 137.074 113.668 137.44C113.873 137.8 114.141 138.071 114.471 138.254C114.808 138.43 115.175 138.518 115.571 138.518ZM119.648 136.098C119.648 135.475 119.772 134.932 120.022 134.47C120.271 134.001 120.616 133.642 121.056 133.392C121.496 133.136 121.998 133.007 122.563 133.007C123.303 133.007 123.912 133.191 124.389 133.557C124.873 133.924 125.184 134.423 125.324 135.053H124.499C124.396 134.621 124.172 134.283 123.828 134.041C123.49 133.792 123.069 133.667 122.563 133.667C122.159 133.667 121.796 133.759 121.474 133.942C121.151 134.126 120.894 134.401 120.704 134.767C120.52 135.127 120.429 135.57 120.429 136.098C120.429 136.626 120.52 137.074 120.704 137.44C120.894 137.807 121.151 138.082 121.474 138.265C121.796 138.449 122.159 138.54 122.563 138.54C123.069 138.54 123.49 138.419 123.828 138.177C124.172 137.928 124.396 137.583 124.499 137.143H125.324C125.184 137.759 124.873 138.254 124.389 138.628C123.905 139.002 123.296 139.189 122.563 139.189C121.998 139.189 121.496 139.065 121.056 138.815C120.616 138.559 120.271 138.199 120.022 137.737C119.772 137.268 119.648 136.722 119.648 136.098ZM127.131 131.962C126.977 131.962 126.845 131.907 126.735 131.797C126.625 131.687 126.57 131.552 126.57 131.39C126.57 131.229 126.625 131.097 126.735 130.994C126.845 130.884 126.977 130.829 127.131 130.829C127.285 130.829 127.417 130.884 127.527 130.994C127.637 131.097 127.692 131.229 127.692 131.39C127.692 131.552 127.637 131.687 127.527 131.797C127.417 131.907 127.285 131.962 127.131 131.962ZM127.516 133.095V139.101H126.746V133.095H127.516ZM128.907 136.087C128.907 135.471 129.028 134.932 129.27 134.47C129.52 134.001 129.861 133.642 130.293 133.392C130.733 133.136 131.228 133.007 131.778 133.007C132.35 133.007 132.842 133.139 133.252 133.403C133.67 133.667 133.971 134.005 134.154 134.415V133.095H134.924V139.101H134.154V137.77C133.964 138.181 133.659 138.522 133.241 138.793C132.831 139.057 132.339 139.189 131.767 139.189C131.225 139.189 130.733 139.061 130.293 138.804C129.861 138.548 129.52 138.185 129.27 137.715C129.028 137.246 128.907 136.703 128.907 136.087ZM134.154 136.098C134.154 135.614 134.055 135.189 133.857 134.822C133.659 134.456 133.388 134.173 133.043 133.975C132.706 133.777 132.332 133.678 131.921 133.678C131.496 133.678 131.115 133.774 130.777 133.964C130.44 134.155 130.172 134.434 129.974 134.8C129.784 135.16 129.688 135.589 129.688 136.087C129.688 136.579 129.784 137.011 129.974 137.385C130.172 137.752 130.44 138.034 130.777 138.232C131.115 138.423 131.496 138.518 131.921 138.518C132.332 138.518 132.706 138.419 133.043 138.221C133.388 138.023 133.659 137.741 133.857 137.374C134.055 137.008 134.154 136.582 134.154 136.098ZM137.452 130.961V139.101H136.682V130.961H137.452Z" fill="#333333"/>
<path d="M75.9699 16.076L75.3314 15.4809C73.0636 13.3755 71.5664 11.9825 71.5664 10.2828C71.5664 8.88973 72.632 7.80322 73.9883 7.80322C74.7545 7.80322 75.4899 8.1684 75.9699 8.74096C76.4498 8.1684 77.1852 7.80322 77.9514 7.80322C79.3077 7.80322 80.3733 8.88973 80.3733 10.2828C80.3733 11.9825 78.8761 13.3755 76.6084 15.4809L75.9699 16.076Z" fill="#1D67FC"/>
<path d="M55.3363 43.8076C59.8492 50.4877 67.1173 52.2065 73.7124 47.6069C78.5766 44.2145 79.1054 38.277 79.1054 31.6925L77.634 25.3095L77.1355 21.1731C77.0525 20.6669 77.1247 20.2302 76.8864 19.9068C76.6034 19.5228 76.8043 19.4847 76.471 19.4003C76.0565 19.316 76.4613 18.9103 76.1385 19.0307C75.8512 19.1379 75.3907 19.4531 75.1415 20.5502C74.8051 22.0309 74.701 21.8163 74.6987 23.0826L74.6987 27.3688C74.701 27.8099 74.4518 28.3164 73.7871 28.1476L73.1229 27.356L61.7152 11.0101C61.3767 10.509 60.8556 10.1656 60.2665 10.0552C59.6774 9.94488 59.0685 10.0767 58.5738 10.4217C58.0792 10.7667 57.7392 11.2966 57.6288 11.8948C57.5184 12.493 57.6465 13.1106 57.985 13.6116L66.4085 26.0801C66.6944 26.5032 66.5908 27.0647 66.173 27.356C65.7552 27.6474 65.2023 27.5439 64.9164 27.1207L54.4509 11.6296C54.1124 11.1286 53.5912 10.7851 53.0021 10.6747C52.413 10.5644 51.8041 10.6962 51.3095 11.0412C50.8148 11.3862 50.4749 11.9161 50.3645 12.5143C50.254 13.1126 50.3822 13.7301 50.7207 14.2312L61.1862 29.7223C61.4721 30.1454 61.3685 30.7069 60.9507 30.9982C60.5329 31.2896 59.98 31.1861 59.6942 30.7629L50.7601 17.5388C50.4216 17.0377 49.9005 16.6943 49.3114 16.5839C48.7222 16.4736 48.1134 16.6054 47.6187 16.9504C47.1241 17.2954 46.7841 17.8253 46.6737 18.4235C46.5633 19.0217 46.6914 19.6393 47.0299 20.1403L55.9639 33.3644C56.2498 33.7876 56.1462 34.349 55.7284 34.6404C55.3106 34.9318 54.7577 34.8282 54.4719 34.4051L48.6009 25.7149C48.2624 25.2139 47.7413 24.8704 47.1522 24.7601C46.563 24.6497 45.9542 24.7816 45.4595 25.1266C44.9649 25.4715 44.6249 26.0014 44.5145 26.5997C44.4041 27.1979 44.5322 27.8155 44.8707 28.3165L55.3363 43.8076Z" fill="#05C7F2"/>
<path d="M97.6654 43.8069C93.1524 50.487 85.8843 52.2058 79.2893 47.6063C74.4251 44.2138 73.8963 38.2763 73.8963 31.6919L73.8963 25.023L73.8967 20.8002C73.9798 20.294 74.3231 19.8921 74.5615 19.5687C74.8445 19.1847 75.2253 18.9455 75.5586 18.8611C75.973 18.7768 76.6482 18.8573 76.971 18.9778C77.2583 19.085 78.303 19.7375 78.303 20.8002C78.303 22.3199 78.3006 21.8157 78.303 23.0819L78.303 27.3681C78.3006 27.8092 78.5496 28.2636 79.2142 28.0947L79.5466 27.7571L79.8788 27.3554L91.2864 11.0094C91.6249 10.5084 92.146 10.1649 92.7352 10.0546C93.3243 9.94421 93.9332 10.076 94.4278 10.421C94.9225 10.766 95.2624 11.2959 95.3728 11.8941C95.4833 12.4924 95.3551 13.1099 95.0166 13.611L86.5931 26.0794C86.3072 26.5026 86.4109 27.064 86.8286 27.3554C87.2464 27.6468 87.7993 27.5432 88.0852 27.12L98.5508 11.6289C98.8893 11.1279 99.4104 10.7844 99.9995 10.6741C100.589 10.5637 101.198 10.6956 101.692 11.0405C102.187 11.3855 102.527 11.9154 102.637 12.5137C102.748 13.1119 102.619 13.7294 102.281 14.2305L91.8154 29.7216C91.5295 30.1448 91.6332 30.7062 92.0509 30.9976C92.4687 31.2889 93.0216 31.1854 93.3075 30.7622L102.242 17.5381C102.58 17.0371 103.101 16.6936 103.69 16.5833C104.279 16.4729 104.888 16.6047 105.383 16.9497C105.878 17.2947 106.218 17.8246 106.328 18.4228C106.438 19.0211 106.31 19.6386 105.972 20.1397L97.0377 33.3638C96.7518 33.787 96.8555 34.3484 97.2732 34.6398C97.691 34.9311 98.2439 34.8276 98.5298 34.4044L104.401 25.7143C104.739 25.2132 105.26 24.8698 105.849 24.7594C106.439 24.6491 107.047 24.7809 107.542 25.1259C108.037 25.4709 108.377 26.0008 108.487 26.599C108.598 27.1972 108.469 27.8148 108.131 28.3158L97.6654 43.8069Z" fill="#FFE62E"/>
<ellipse cx="76.0924" cy="20.7926" rx="2.20173" ry="2.23704" fill="#FFE62E"/>
</svg>
