<svg width="144" height="40" viewBox="0 0 144 40" fill="none" xmlns="http://www.w3.org/2000/svg">
<path d="M64.96 10.32V37H58.68V10.32H64.96ZM78.8806 10.32C79.9206 10.32 80.8806 10.36 81.6806 10.44C82.4806 10.52 83.2406 10.6 83.8806 10.72C84.5206 10.88 85.0806 11.04 85.6006 11.28C86.1206 11.52 86.6406 11.84 87.1206 12.16C88.0806 12.88 88.8406 13.84 89.4006 15C89.9206 16.16 90.2006 17.48 90.2006 18.92C90.2006 22.08 89.0006 24.52 86.6006 26.2C85.5606 26.96 84.4006 27.52 83.1606 27.84C81.8806 28.16 80.4006 28.32 78.6406 28.32H76.6006V37H70.3206V10.32H78.8806ZM76.6006 23.4H78.1606C79.2406 23.4 80.0406 23.36 80.5606 23.24C81.0806 23.16 81.6006 22.92 82.0806 22.6C82.5606 22.28 82.9206 21.84 83.2006 21.24C83.4806 20.68 83.6406 20.04 83.6406 19.32C83.6406 18.64 83.4806 18 83.2006 17.4C82.9206 16.84 82.5606 16.36 82.0806 16.04C81.6006 15.72 81.0806 15.52 80.5606 15.4C80.0406 15.32 79.2406 15.24 78.1606 15.24H76.6006V23.4ZM114.017 37H107.257L106.337 32.8H98.4169L97.4169 37H90.9769L98.7769 10.2H106.457L114.017 37ZM102.537 16.24L99.6569 28H105.217L102.537 16.24ZM122.631 28.96C122.791 31.4 123.871 32.6 125.871 32.6C126.711 32.6 127.431 32.36 127.991 31.88C128.551 31.4 128.831 30.76 128.831 29.96C128.831 29.48 128.711 29.08 128.471 28.72C128.231 28.36 127.911 28 127.471 27.68C127.191 27.52 126.951 27.36 126.791 27.24C126.591 27.12 126.311 26.96 125.991 26.8C125.671 26.64 125.191 26.4 124.631 26.12C124.071 25.84 123.271 25.44 122.231 24.92C121.271 24.44 120.431 23.96 119.791 23.48C119.111 23 118.591 22.48 118.191 21.92C117.791 21.36 117.471 20.76 117.311 20.08C117.151 19.44 117.071 18.68 117.071 17.8C117.071 15.32 117.911 13.4 119.591 11.96C121.271 10.52 123.591 9.8 126.551 9.8C127.991 9.8 129.311 10 130.431 10.4C131.551 10.8 132.431 11.36 133.151 12.12C133.551 12.56 133.871 13.04 134.151 13.6C134.391 14.16 134.631 14.84 134.871 15.68L129.031 17.72C128.871 16.68 128.511 15.92 128.031 15.44C127.551 14.96 126.831 14.72 125.911 14.72C125.151 14.72 124.551 14.96 124.071 15.36C123.591 15.76 123.391 16.32 123.391 17C123.391 17.72 123.631 18.32 124.191 18.84C124.711 19.4 125.591 19.92 126.831 20.44C127.591 20.76 128.231 21.04 128.751 21.28C129.271 21.52 129.711 21.72 130.071 21.88C130.431 22.08 130.751 22.24 131.031 22.4C131.271 22.56 131.591 22.76 131.911 22.96C134.151 24.48 135.271 26.56 135.271 29.12C135.271 30.32 134.991 31.48 134.511 32.56C133.991 33.64 133.271 34.56 132.351 35.36C131.391 36.16 130.391 36.72 129.311 37.04C128.191 37.36 126.871 37.52 125.271 37.52C122.111 37.52 119.791 36.68 118.271 35C117.791 34.56 117.471 34.04 117.231 33.44C116.991 32.88 116.751 32.08 116.591 31.12L122.631 28.96Z" fill="#1D67FC"/>
<path d="M27.2828 11.2002L26.8116 10.761C25.1381 9.2073 24.0332 8.17925 24.0332 6.92496C24.0332 5.89691 24.8196 5.09509 25.8205 5.09509C26.3859 5.09509 26.9286 5.36458 27.2828 5.78712C27.637 5.36458 28.1797 5.09509 28.7452 5.09509C29.746 5.09509 30.5324 5.89691 30.5324 6.92496C30.5324 8.17925 29.4276 9.2073 27.754 10.761L27.2828 11.2002Z" fill="#1D67FC"/>
<path d="M12.0568 31.6654C15.3873 36.5951 20.7509 37.8636 25.6179 34.4692C29.2075 31.9657 29.5978 27.584 29.5978 22.7248L28.5119 18.0143L28.1441 14.9618C28.0828 14.5882 28.1361 14.266 27.9602 14.0273C27.7513 13.7439 27.8996 13.7158 27.6537 13.6535C27.3478 13.5914 27.6465 13.2919 27.4083 13.3808C27.1963 13.4599 26.8564 13.6925 26.6725 14.5022C26.4243 15.5949 26.3475 15.4365 26.3457 16.371L26.3457 19.5341C26.3475 19.8596 26.1635 20.2334 25.673 20.1088L25.1829 19.5247L16.7643 7.46178C16.5145 7.09203 16.1299 6.83856 15.6952 6.75713C15.2604 6.6757 14.8111 6.77298 14.4461 7.02757C14.081 7.28216 13.8302 7.67321 13.7487 8.11469C13.6672 8.55616 13.7617 9.01191 14.0115 9.38166L20.2278 18.583C20.4388 18.8953 20.3623 19.3096 20.054 19.5247C19.7457 19.7397 19.3377 19.6633 19.1267 19.351L11.4034 7.91898C11.1536 7.54922 10.7691 7.29575 10.3343 7.21432C9.89953 7.13289 9.45021 7.23018 9.08517 7.48477C8.72013 7.73936 8.46927 8.13041 8.38778 8.57188C8.30629 9.01336 8.40084 9.4691 8.65064 9.83885L16.3739 21.2708C16.5849 21.5831 16.5084 21.9975 16.2001 22.2125C15.8918 22.4275 15.4838 22.3511 15.2728 22.0388L8.67976 12.2798C8.42996 11.91 8.04538 11.6566 7.61062 11.5751C7.17586 11.4937 6.72654 11.591 6.3615 11.8456C5.99645 12.1002 5.74559 12.4912 5.6641 12.9327C5.58261 13.3742 5.67717 13.8299 5.92697 14.1997L12.52 23.9587C12.731 24.271 12.6545 24.6853 12.3462 24.9003C12.0379 25.1153 11.6299 25.0389 11.4189 24.7266L7.08633 18.3136C6.83653 17.9438 6.45195 17.6903 6.01719 17.6089C5.58244 17.5275 5.13311 17.6248 4.76807 17.8794C4.40303 18.1339 4.15217 18.525 4.07068 18.9665C3.98919 19.4079 4.08374 19.8637 4.33354 20.2334L12.0568 31.6654Z" fill="#05C7F2"/>
<path d="M43.293 31.6651C39.9625 36.5948 34.5989 37.8632 29.7319 34.4689C26.1423 31.9654 25.752 27.5837 25.752 22.7245L25.752 17.803L25.7524 14.6868C25.8137 14.3132 26.067 14.0166 26.2429 13.7779C26.4518 13.4946 26.7328 13.318 26.9788 13.2557C27.2846 13.1936 27.7829 13.253 28.0211 13.3419C28.2331 13.421 29.0041 13.9025 29.0041 14.6868C29.0041 15.8082 29.0023 15.4361 29.0041 16.3706L29.0041 19.5337C29.0023 19.8592 29.186 20.1945 29.6766 20.0699L29.9218 19.8207L30.1669 19.5243L38.5855 7.46143C38.8353 7.09168 39.2199 6.83821 39.6546 6.75678C40.0894 6.67535 40.5387 6.77263 40.9037 7.02722C41.2688 7.28181 41.5196 7.67286 41.6011 8.11433C41.6826 8.55581 41.5881 9.01155 41.3383 9.3813L35.1219 18.5827C34.911 18.895 34.9874 19.3093 35.2958 19.5243C35.6041 19.7393 36.0121 19.6629 36.2231 19.3506L43.9464 7.91862C44.1962 7.54887 44.5807 7.2954 45.0155 7.21397C45.4503 7.13254 45.8996 7.22982 46.2646 7.48441C46.6297 7.739 46.8805 8.13005 46.962 8.57153C47.0435 9.013 46.949 9.46874 46.6992 9.8385L38.9759 21.2705C38.7649 21.5828 38.8414 21.9971 39.1497 22.2121C39.458 22.4272 39.866 22.3507 40.077 22.0384L46.67 12.2794C46.9198 11.9097 47.3044 11.6562 47.7392 11.5748C48.1739 11.4933 48.6233 11.5906 48.9883 11.8452C49.3533 12.0998 49.6042 12.4909 49.6857 12.9323C49.7672 13.3738 49.6726 13.8296 49.4228 14.1993L42.8298 23.9583C42.6188 24.2706 42.6953 24.6849 43.0036 24.9C43.3119 25.115 43.7199 25.0386 43.9309 24.7263L48.2635 18.3132C48.5133 17.9435 48.8978 17.69 49.3326 17.6086C49.7674 17.5271 50.2167 17.6244 50.5817 17.879C50.9468 18.1336 51.1976 18.5246 51.2791 18.9661C51.3606 19.4076 51.2661 19.8633 51.0163 20.2331L43.293 31.6651Z" fill="#FFE62E"/>
<ellipse cx="27.3748" cy="14.6811" rx="1.62481" ry="1.65087" fill="#FFE62E"/>
</svg>
