<svg width="40" height="40" viewBox="0 0 40 40" fill="none" xmlns="http://www.w3.org/2000/svg">
<rect width="40" height="40" rx="20" fill="#1D67FC"/>
<path d="M29.375 20C29.375 20.2984 29.2565 20.5845 29.0455 20.7955C28.8345 21.0065 28.5484 21.125 28.25 21.125H11.75C11.4516 21.125 11.1655 21.0065 10.9545 20.7955C10.7435 20.5845 10.625 20.2984 10.625 20C10.625 19.7016 10.7435 19.4155 10.9545 19.2045C11.1655 18.9935 11.4516 18.875 11.75 18.875H28.25C28.5484 18.875 28.8345 18.9935 29.0455 19.2045C29.2565 19.4155 29.375 19.7016 29.375 20ZM11.75 15.125H28.25C28.5484 15.125 28.8345 15.0065 29.0455 14.7955C29.2565 14.5845 29.375 14.2984 29.375 14C29.375 13.7016 29.2565 13.4155 29.0455 13.2045C28.8345 12.9935 28.5484 12.875 28.25 12.875H11.75C11.4516 12.875 11.1655 12.9935 10.9545 13.2045C10.7435 13.4155 10.625 13.7016 10.625 14C10.625 14.2984 10.7435 14.5845 10.9545 14.7955C11.1655 15.0065 11.4516 15.125 11.75 15.125ZM28.25 24.875H11.75C11.4516 24.875 11.1655 24.9935 10.9545 25.2045C10.7435 25.4155 10.625 25.7016 10.625 26C10.625 26.2984 10.7435 26.5845 10.9545 26.7955C11.1655 27.0065 11.4516 27.125 11.75 27.125H28.25C28.5484 27.125 28.8345 27.0065 29.0455 26.7955C29.2565 26.5845 29.375 26.2984 29.375 26C29.375 25.7016 29.2565 25.4155 29.0455 25.2045C28.8345 24.9935 28.5484 24.875 28.25 24.875Z" fill="#FDFDFD"/>
</svg>
