<svg width="24" height="25" viewBox="0 0 24 25" fill="none" xmlns="http://www.w3.org/2000/svg">
<path d="M15.4499 17.02L12.4399 14.01C12.3299 13.9 12.1999 13.88 12.1299 13.88C12.0599 13.88 11.9299 13.9 11.8199 14.01L8.79991 17.03C8.45991 17.37 7.92991 17.92 6.15991 17.92L9.86991 21.62C10.4324 22.1818 11.1949 22.4974 11.9899 22.4974C12.7849 22.4974 13.5474 22.1818 14.1099 21.62L17.8299 17.91C16.9199 17.91 16.1599 17.73 15.4499 17.02ZM8.79991 7.97005L11.8199 10.99C11.8999 11.07 12.0199 11.12 12.1299 11.12C12.2399 11.12 12.3599 11.07 12.4399 10.99L15.4299 8.00005C16.1399 7.26005 16.9499 7.09005 17.8599 7.09005L14.1399 3.38005C13.5774 2.81824 12.8149 2.50269 12.0199 2.50269C11.2249 2.50269 10.4624 2.81824 9.89991 3.38005L6.18991 7.08005C7.94991 7.08005 8.48991 7.66005 8.79991 7.97005Z" fill="#32BCAD"/>
<path d="M21.11 10.3501L18.86 8.09007H17.6C17.06 8.09007 16.52 8.31007 16.15 8.70007L13.15 11.7001C12.87 11.9801 12.5 12.1201 12.13 12.1201C11.749 12.1147 11.3844 11.9645 11.11 11.7001L8.09005 8.67007C7.71005 8.29007 7.19005 8.07007 6.64005 8.07007H5.17005L2.88005 10.3701C2.31824 10.9326 2.00269 11.6951 2.00269 12.4901C2.00269 13.2851 2.31824 14.0476 2.88005 14.6101L5.17005 16.9101H6.65005C7.19005 16.9101 7.71005 16.6901 8.10005 16.3101L11.12 13.2901C11.4 13.0101 11.77 12.8701 12.14 12.8701C12.51 12.8701 12.88 13.0101 13.16 13.2901L16.17 16.3001C16.55 16.6801 17.07 16.9001 17.62 16.9001H18.88L21.13 14.6401C21.6942 14.0674 22.0088 13.2948 22.005 12.4909C22.0013 11.6871 21.6795 10.9174 21.11 10.3501Z" fill="#32BCAD"/>
</svg>
