<svg width="155" height="155" viewBox="0 0 155 155" fill="none" xmlns="http://www.w3.org/2000/svg">
<path d="M152.886 142.671L143.023 142.671C142.828 142.671 142.67 142.828 142.67 143.023L142.67 152.886C142.67 153.081 142.828 153.239 143.023 153.239L152.886 153.239C153.081 153.239 153.239 153.081 153.239 152.886L153.239 143.023C153.239 142.828 153.081 142.671 152.886 142.671Z" stroke="#FDFDFD" stroke-width="1.32102" stroke-linecap="round" stroke-linejoin="round"/>
<path d="M152.886 114.488L143.023 114.488C142.828 114.488 142.67 114.646 142.67 114.841L142.67 124.704C142.67 124.899 142.828 125.057 143.023 125.057L152.886 125.057C153.081 125.057 153.239 124.899 153.239 124.704L153.239 114.841C153.239 114.646 153.081 114.488 152.886 114.488Z" stroke="#FDFDFD" stroke-width="1.32102" stroke-linecap="round" stroke-linejoin="round"/>
<path d="M152.886 86.3071L143.023 86.3071C142.828 86.3071 142.67 86.4648 142.67 86.6593L142.67 96.523C142.67 96.7175 142.828 96.8752 143.023 96.8752L152.886 96.8752C153.081 96.8752 153.239 96.7175 153.239 96.523L153.239 86.6593C153.239 86.4648 153.081 86.3071 152.886 86.3071Z" stroke="#FDFDFD" stroke-width="1.32102" stroke-linecap="round" stroke-linejoin="round"/>
<path d="M152.886 58.1249L143.023 58.1249C142.828 58.1249 142.67 58.2826 142.67 58.4772L142.67 68.3408C142.67 68.5354 142.828 68.6931 143.023 68.6931L152.886 68.6931C153.081 68.6931 153.239 68.5354 153.239 68.3408L153.239 58.4772C153.239 58.2826 153.081 58.1249 152.886 58.1249Z" stroke="#FDFDFD" stroke-width="1.32102" stroke-linecap="round" stroke-linejoin="round"/>
<path d="M152.886 29.943L143.023 29.943C142.828 29.943 142.67 30.1007 142.67 30.2953L142.67 40.159C142.67 40.3535 142.828 40.5112 143.023 40.5112L152.886 40.5112C153.081 40.5112 153.239 40.3535 153.239 40.159L153.239 30.2953C153.239 30.1007 153.081 29.943 152.886 29.943Z" stroke="#FDFDFD" stroke-width="1.32102" stroke-linecap="round" stroke-linejoin="round"/>
<path d="M152.886 1.76141L143.023 1.76141C142.828 1.76141 142.67 1.91911 142.67 2.11368L142.67 11.9773C142.67 12.1719 142.828 12.3296 143.023 12.3296L152.886 12.3296C153.081 12.3296 153.239 12.1719 153.239 11.9773L153.239 2.11368C153.239 1.91911 153.081 1.76141 152.886 1.76141Z" stroke="#FDFDFD" stroke-width="1.32102" stroke-linecap="round" stroke-linejoin="round"/>
<path d="M124.705 142.671L114.841 142.671C114.646 142.671 114.489 142.828 114.489 143.023L114.489 152.886C114.489 153.081 114.646 153.239 114.841 153.239L124.705 153.239C124.899 153.239 125.057 153.081 125.057 152.886L125.057 143.023C125.057 142.828 124.899 142.671 124.705 142.671Z" stroke="#FDFDFD" stroke-width="1.32102" stroke-linecap="round" stroke-linejoin="round"/>
<path d="M124.705 114.488L114.841 114.488C114.646 114.488 114.489 114.646 114.489 114.841L114.489 124.704C114.489 124.899 114.646 125.057 114.841 125.057L124.705 125.057C124.899 125.057 125.057 124.899 125.057 124.704L125.057 114.841C125.057 114.646 124.899 114.488 124.705 114.488Z" stroke="#FDFDFD" stroke-width="1.32102" stroke-linecap="round" stroke-linejoin="round"/>
<path d="M124.705 86.3071L114.841 86.3071C114.646 86.3071 114.489 86.4648 114.489 86.6593L114.489 96.523C114.489 96.7175 114.646 96.8752 114.841 96.8752L124.705 96.8752C124.899 96.8752 125.057 96.7175 125.057 96.523L125.057 86.6593C125.057 86.4648 124.899 86.3071 124.705 86.3071Z" stroke="#FDFDFD" stroke-width="1.32102" stroke-linecap="round" stroke-linejoin="round"/>
<path d="M124.705 58.1249L114.841 58.1249C114.646 58.1249 114.489 58.2826 114.489 58.4772L114.489 68.3408C114.489 68.5354 114.646 68.6931 114.841 68.6931L124.705 68.6931C124.899 68.6931 125.057 68.5354 125.057 68.3408L125.057 58.4772C125.057 58.2826 124.899 58.1249 124.705 58.1249Z" stroke="#FDFDFD" stroke-width="1.32102" stroke-linecap="round" stroke-linejoin="round"/>
<path d="M124.705 29.943L114.841 29.943C114.646 29.943 114.489 30.1007 114.489 30.2953L114.489 40.159C114.489 40.3535 114.646 40.5112 114.841 40.5112L124.705 40.5112C124.899 40.5112 125.057 40.3535 125.057 40.159L125.057 30.2953C125.057 30.1007 124.899 29.943 124.705 29.943Z" stroke="#FDFDFD" stroke-width="1.32102" stroke-linecap="round" stroke-linejoin="round"/>
<path d="M124.705 1.76141L114.841 1.76141C114.646 1.76141 114.489 1.91911 114.489 2.11368L114.489 11.9773C114.489 12.1719 114.646 12.3296 114.841 12.3296L124.705 12.3296C124.899 12.3296 125.057 12.1719 125.057 11.9773L125.057 2.11368C125.057 1.91911 124.899 1.76141 124.705 1.76141Z" stroke="#FDFDFD" stroke-width="1.32102" stroke-linecap="round" stroke-linejoin="round"/>
<path d="M96.5227 142.671L86.6591 142.671C86.4645 142.671 86.3068 142.828 86.3068 143.023L86.3068 152.886C86.3068 153.081 86.4645 153.239 86.6591 153.239L96.5227 153.239C96.7173 153.239 96.875 153.081 96.875 152.886L96.875 143.023C96.875 142.828 96.7173 142.671 96.5227 142.671Z" stroke="#FDFDFD" stroke-width="1.32102" stroke-linecap="round" stroke-linejoin="round"/>
<path d="M96.5227 114.488L86.6591 114.488C86.4645 114.488 86.3068 114.646 86.3068 114.841L86.3068 124.704C86.3068 124.899 86.4645 125.057 86.6591 125.057L96.5227 125.057C96.7173 125.057 96.875 124.899 96.875 124.704L96.875 114.841C96.875 114.646 96.7173 114.488 96.5227 114.488Z" stroke="#FDFDFD" stroke-width="1.32102" stroke-linecap="round" stroke-linejoin="round"/>
<path d="M96.5227 86.3071L86.6591 86.3071C86.4645 86.3071 86.3068 86.4648 86.3068 86.6593L86.3068 96.523C86.3068 96.7175 86.4645 96.8752 86.6591 96.8752L96.5227 96.8752C96.7173 96.8752 96.875 96.7175 96.875 96.523L96.875 86.6593C96.875 86.4648 96.7173 86.3071 96.5227 86.3071Z" stroke="#FDFDFD" stroke-width="1.32102" stroke-linecap="round" stroke-linejoin="round"/>
<path d="M96.5227 58.1249L86.6591 58.1249C86.4645 58.1249 86.3068 58.2826 86.3068 58.4772L86.3068 68.3408C86.3068 68.5354 86.4645 68.6931 86.6591 68.6931L96.5227 68.6931C96.7173 68.6931 96.875 68.5354 96.875 68.3408L96.875 58.4772C96.875 58.2826 96.7173 58.1249 96.5227 58.1249Z" stroke="#FDFDFD" stroke-width="1.32102" stroke-linecap="round" stroke-linejoin="round"/>
<path d="M96.5227 29.943L86.6591 29.943C86.4645 29.943 86.3068 30.1007 86.3068 30.2953L86.3068 40.159C86.3068 40.3535 86.4645 40.5112 86.6591 40.5112L96.5227 40.5112C96.7173 40.5112 96.875 40.3535 96.875 40.159L96.875 30.2953C96.875 30.1007 96.7173 29.943 96.5227 29.943Z" stroke="#FDFDFD" stroke-width="1.32102" stroke-linecap="round" stroke-linejoin="round"/>
<path d="M96.5227 1.76141L86.6591 1.76141C86.4645 1.76141 86.3068 1.91911 86.3068 2.11368L86.3068 11.9773C86.3068 12.1719 86.4645 12.3296 86.6591 12.3296L96.5227 12.3296C96.7173 12.3296 96.875 12.1719 96.875 11.9773L96.875 2.11368C96.875 1.91911 96.7173 1.76141 96.5227 1.76141Z" stroke="#FDFDFD" stroke-width="1.32102" stroke-linecap="round" stroke-linejoin="round"/>
<path d="M68.341 142.671L58.4773 142.671C58.2828 142.671 58.1251 142.828 58.1251 143.023L58.1251 152.886C58.1251 153.081 58.2828 153.239 58.4773 153.239L68.341 153.239C68.5355 153.239 68.6932 153.081 68.6932 152.886L68.6932 143.023C68.6932 142.828 68.5355 142.671 68.341 142.671Z" stroke="#FDFDFD" stroke-width="1.32102" stroke-linecap="round" stroke-linejoin="round"/>
<path d="M68.341 114.488L58.4773 114.488C58.2828 114.488 58.1251 114.646 58.1251 114.841L58.1251 124.704C58.1251 124.899 58.2828 125.057 58.4773 125.057L68.341 125.057C68.5355 125.057 68.6932 124.899 68.6932 124.704L68.6932 114.841C68.6932 114.646 68.5355 114.488 68.341 114.488Z" stroke="#FDFDFD" stroke-width="1.32102" stroke-linecap="round" stroke-linejoin="round"/>
<path d="M68.341 86.3071L58.4773 86.3071C58.2828 86.3071 58.1251 86.4648 58.1251 86.6593L58.1251 96.523C58.1251 96.7175 58.2828 96.8752 58.4773 96.8752L68.341 96.8752C68.5355 96.8752 68.6932 96.7175 68.6932 96.523L68.6932 86.6593C68.6932 86.4648 68.5355 86.3071 68.341 86.3071Z" stroke="#FDFDFD" stroke-width="1.32102" stroke-linecap="round" stroke-linejoin="round"/>
<path d="M68.341 58.1249L58.4773 58.1249C58.2828 58.1249 58.1251 58.2826 58.1251 58.4772L58.1251 68.3408C58.1251 68.5354 58.2828 68.6931 58.4773 68.6931L68.341 68.6931C68.5355 68.6931 68.6932 68.5354 68.6932 68.3408L68.6932 58.4772C68.6932 58.2826 68.5355 58.1249 68.341 58.1249Z" stroke="#FDFDFD" stroke-width="1.32102" stroke-linecap="round" stroke-linejoin="round"/>
<path d="M68.341 29.943L58.4773 29.943C58.2828 29.943 58.1251 30.1007 58.1251 30.2953L58.1251 40.159C58.1251 40.3535 58.2828 40.5112 58.4773 40.5112L68.341 40.5112C68.5355 40.5112 68.6932 40.3535 68.6932 40.159L68.6932 30.2953C68.6932 30.1007 68.5355 29.943 68.341 29.943Z" stroke="#FDFDFD" stroke-width="1.32102" stroke-linecap="round" stroke-linejoin="round"/>
<path d="M68.341 1.76141L58.4773 1.76141C58.2828 1.76141 58.1251 1.91911 58.1251 2.11368L58.1251 11.9773C58.1251 12.1719 58.2828 12.3296 58.4773 12.3296L68.341 12.3296C68.5355 12.3296 68.6932 12.1719 68.6932 11.9773L68.6932 2.11368C68.6932 1.91911 68.5355 1.76141 68.341 1.76141Z" stroke="#FDFDFD" stroke-width="1.32102" stroke-linecap="round" stroke-linejoin="round"/>
<path d="M40.1591 142.671L30.2954 142.671C30.1009 142.671 29.9432 142.828 29.9432 143.023L29.9432 152.886C29.9432 153.081 30.1009 153.239 30.2954 153.239L40.1591 153.239C40.3536 153.239 40.5114 153.081 40.5114 152.886L40.5114 143.023C40.5114 142.828 40.3536 142.671 40.1591 142.671Z" stroke="#FDFDFD" stroke-width="1.32102" stroke-linecap="round" stroke-linejoin="round"/>
<path d="M40.1591 114.488L30.2954 114.488C30.1009 114.488 29.9432 114.646 29.9432 114.841L29.9432 124.704C29.9432 124.899 30.1009 125.057 30.2954 125.057L40.1591 125.057C40.3536 125.057 40.5114 124.899 40.5114 124.704L40.5114 114.841C40.5114 114.646 40.3536 114.488 40.1591 114.488Z" stroke="#FDFDFD" stroke-width="1.32102" stroke-linecap="round" stroke-linejoin="round"/>
<path d="M40.1591 86.3071L30.2954 86.3071C30.1009 86.3071 29.9432 86.4648 29.9432 86.6593L29.9432 96.523C29.9432 96.7175 30.1009 96.8752 30.2954 96.8752L40.1591 96.8752C40.3536 96.8752 40.5114 96.7175 40.5114 96.523L40.5114 86.6593C40.5114 86.4648 40.3536 86.3071 40.1591 86.3071Z" stroke="#FDFDFD" stroke-width="1.32102" stroke-linecap="round" stroke-linejoin="round"/>
<path d="M40.1591 58.1249L30.2954 58.1249C30.1009 58.1249 29.9432 58.2826 29.9432 58.4772L29.9432 68.3408C29.9432 68.5354 30.1009 68.6931 30.2954 68.6931L40.1591 68.6931C40.3536 68.6931 40.5114 68.5354 40.5114 68.3408L40.5114 58.4772C40.5114 58.2826 40.3536 58.1249 40.1591 58.1249Z" stroke="#FDFDFD" stroke-width="1.32102" stroke-linecap="round" stroke-linejoin="round"/>
<path d="M40.1591 29.943L30.2954 29.943C30.1009 29.943 29.9432 30.1007 29.9432 30.2953L29.9432 40.159C29.9432 40.3535 30.1009 40.5112 30.2954 40.5112L40.1591 40.5112C40.3536 40.5112 40.5114 40.3535 40.5114 40.159L40.5114 30.2953C40.5114 30.1007 40.3536 29.943 40.1591 29.943Z" stroke="#FDFDFD" stroke-width="1.32102" stroke-linecap="round" stroke-linejoin="round"/>
<path d="M40.1591 1.76141L30.2954 1.76141C30.1009 1.76141 29.9432 1.91911 29.9432 2.11368L29.9432 11.9773C29.9432 12.1719 30.1009 12.3296 30.2954 12.3296L40.1591 12.3296C40.3536 12.3296 40.5114 12.1719 40.5114 11.9773L40.5114 2.11368C40.5114 1.91911 40.3536 1.76141 40.1591 1.76141Z" stroke="#FDFDFD" stroke-width="1.32102" stroke-linecap="round" stroke-linejoin="round"/>
<path d="M11.9773 142.671L2.11368 142.671C1.91911 142.671 1.76141 142.828 1.76141 143.023L1.76141 152.886C1.76141 153.081 1.91911 153.239 2.11368 153.239L11.9773 153.239C12.1719 153.239 12.3296 153.081 12.3296 152.886L12.3296 143.023C12.3296 142.828 12.1719 142.671 11.9773 142.671Z" stroke="#FDFDFD" stroke-width="1.32102" stroke-linecap="round" stroke-linejoin="round"/>
<path d="M11.9773 114.488L2.11368 114.488C1.91911 114.488 1.76141 114.646 1.76141 114.841L1.76141 124.704C1.76141 124.899 1.91911 125.057 2.11368 125.057L11.9773 125.057C12.1719 125.057 12.3296 124.899 12.3296 124.704L12.3296 114.841C12.3296 114.646 12.1719 114.488 11.9773 114.488Z" stroke="#FDFDFD" stroke-width="1.32102" stroke-linecap="round" stroke-linejoin="round"/>
<path d="M11.9773 86.3071L2.11368 86.3071C1.91911 86.3071 1.76141 86.4648 1.76141 86.6593L1.76141 96.523C1.76141 96.7175 1.91911 96.8752 2.11368 96.8752L11.9773 96.8752C12.1719 96.8752 12.3296 96.7175 12.3296 96.523L12.3296 86.6593C12.3296 86.4648 12.1719 86.3071 11.9773 86.3071Z" stroke="#FDFDFD" stroke-width="1.32102" stroke-linecap="round" stroke-linejoin="round"/>
<path d="M11.9773 58.1249L2.11368 58.1249C1.91911 58.1249 1.76141 58.2826 1.76141 58.4772L1.76141 68.3408C1.76141 68.5354 1.91911 68.6931 2.11368 68.6931L11.9773 68.6931C12.1719 68.6931 12.3296 68.5354 12.3296 68.3408L12.3296 58.4772C12.3296 58.2826 12.1719 58.1249 11.9773 58.1249Z" stroke="#FDFDFD" stroke-width="1.32102" stroke-linecap="round" stroke-linejoin="round"/>
<path d="M11.9773 29.943L2.11368 29.943C1.91911 29.943 1.76141 30.1007 1.76141 30.2953L1.76141 40.159C1.76141 40.3535 1.91911 40.5112 2.11368 40.5112L11.9773 40.5112C12.1719 40.5112 12.3296 40.3535 12.3296 40.159L12.3296 30.2953C12.3296 30.1007 12.1719 29.943 11.9773 29.943Z" stroke="#FDFDFD" stroke-width="1.32102" stroke-linecap="round" stroke-linejoin="round"/>
<path d="M11.9773 1.76141L2.11368 1.76141C1.91911 1.76141 1.76141 1.91911 1.76141 2.11368L1.76141 11.9773C1.76141 12.1719 1.91911 12.3296 2.11368 12.3296L11.9773 12.3296C12.1719 12.3296 12.3296 12.1719 12.3296 11.9773L12.3296 2.11368C12.3296 1.91911 12.1719 1.76141 11.9773 1.76141Z" stroke="#FDFDFD" stroke-width="1.32102" stroke-linecap="round" stroke-linejoin="round"/>
</svg>
